<svg viewBox="0 -33 512 511" xmlns="http://www.w3.org/2000/svg"><path d="M467 361.492H45c-24.813 0-45-20.187-45-45V45.5C0 20.687 20.188.5 45 .5h422c24.813 0 45 20.188 45 45v270.992c0 24.813-20.188 45-45 45zm0 0" fill="#e9edf5"/><path d="M256 .5H45C20.187.5 0 20.688 0 45.5v270.992c0 24.813 20.188 45 45 45h211zm0 0" fill="#fff"/><path d="M304.273 445.766c8.286 0 15-6.715 15-15V353.07c0-8.285-6.714-15-15-15h-96.546c-8.286 0-15 6.715-15 15v77.696c0 8.285 6.714 15 15 15zm0 0" fill="#9196aa"/><path d="M256 338.07h-48.273c-8.286 0-15 6.715-15 15v77.696c0 8.285 6.714 15 15 15H256zm0 0" fill="#cdd2e1"/><path d="M360.715 445.926h-209.43c-8.285 0-15-6.715-15-15s6.715-15 15-15H360.72c8.281 0 15 6.715 15 15s-6.719 15-15.004 15zm0 0M0 276.219v40.273c0 24.813 20.188 45 45 45h422c24.813 0 45-20.187 45-45V276.22zm0 0" fill="#bec3d2"/><path d="M256 276.219H0v40.273c0 24.813 20.188 45 45 45h211zm0 0" fill="#e9edf5"/><path d="M262.48 320.227h-12.96c-8.282 0-15-6.72-15-15 0-8.286 6.718-15 15-15h12.96c8.282 0 15 6.714 15 15 0 8.28-6.718 15-15 15zm0 0" fill="#9196aa"/><path d="M256 290.227h-6.48c-8.282 0-15 6.714-15 15 0 8.28 6.718 15 15 15H256zm0 0" fill="#cdd2e1"/><path d="M256 415.926H151.285c-8.285 0-15 6.715-15 15s6.715 15 15 15H256zm0 0" fill="#e9edf5"/><path d="M512 45.5c0-24.813-20.188-45-45-45H45C20.187.5 0 20.688 0 45.5v230.719h512zm-30 200.719H30V45.5c0-8.27 6.73-15 15-15h422c8.27 0 15 6.73 15 15zm0 0" fill="#293146"/><path d="M256 246.219H30V45.5c0-8.27 6.73-15 15-15h211V.5H45C20.187.5 0 20.688 0 45.5v230.719h256zm0 0" fill="#587ca2"/><path d="M327.496 122.145c-7.45 0-13.492-6.043-13.492-13.497V95.59h-7.016c-7.453 0-13.496-6.04-13.496-13.492s6.043-13.493 13.496-13.493H327.5c7.45 0 13.492 6.04 13.492 13.493v26.55c0 7.454-6.043 13.497-13.496 13.497zm0 0" fill="#9196aa"/><g fill="#3b4975"><path d="M233.035 108.234H89.5c-8.285 0-15-6.714-15-15s6.715-15 15-15h143.535c8.285 0 15 6.715 15 15s-6.715 15-15 15zm0 0M233.035 156.086H89.5c-8.285 0-15-6.715-15-15 0-8.281 6.715-15 15-15h143.535c8.285 0 15 6.719 15 15 0 8.285-6.715 15-15 15zm0 0M233.035 203.941H89.5c-8.285 0-15-6.714-15-15s6.715-15 15-15h143.535c8.285 0 15 6.715 15 15s-6.715 15-15 15zm0 0"/></g><path d="M348.352 199.91c0 7.977-6.47 14.445-14.446 14.445s-14.441-6.468-14.441-14.445c0-7.976 6.465-14.441 14.441-14.441s14.446 6.465 14.446 14.441zm0 0M392.352 199.91c0 7.977-6.47 14.445-14.446 14.445s-14.441-6.468-14.441-14.445c0-7.976 6.465-14.441 14.441-14.441s14.446 6.465 14.446 14.441zm0 0" fill="#9196aa"/><path d="M389.832 176.031h-62.395a13.495 13.495 0 0 1-13.492-13.508l.059-53.671c.008-7.446 6.047-13.48 13.492-13.48h92.844a13.493 13.493 0 0 1 11.73 20.163l-30.507 53.672a13.495 13.495 0 0 1-11.731 6.824zm0 0" fill="#ff3e50"/></svg>