<svg height="512pt" viewBox="-4 0 512 512" width="512pt" xmlns="http://www.w3.org/2000/svg"><path d="M251.66 428.086s-62.48 21.605-104.828-5.73c-42.348-27.336-48.25-93.114-48.25-93.114zm0 0" fill="#4c8056"/><path d="M251.66 428.086L98.582 329.242s62.48-21.61 104.742 5.64 48.336 93.204 48.336 93.204zm0 0" fill="#71c285"/><path d="M404.742 329.242s-5.988 65.867-48.25 93.113c-42.262 27.25-104.832 5.73-104.832 5.73zm0 0" fill="#4c8056"/><path d="M404.742 329.242L251.66 428.086s5.988-65.867 48.336-93.203c42.352-27.336 104.746-5.64 104.746-5.64zm0 0" fill="#71c285"/><path d="M251.66 512c-4.793 0-8.676-3.887-8.676-8.68V295.05c0-4.792 3.883-8.679 8.676-8.679a8.68 8.68 0 0 1 8.68 8.68v208.27a8.68 8.68 0 0 1-8.68 8.679zm0 0" fill="#cc6f56"/><path d="M503.32 485.395c-4.746-5.168-11.441-8.106-18.457-8.106s-13.71 2.938-18.457 8.106l-9.726 9.824a25.067 25.067 0 0 1-36.91 0l-9.727-9.824a25.071 25.071 0 0 0-36.918 0l-9.727 9.824c-4.746 5.164-11.441 8.101-18.457 8.101s-13.71-2.937-18.457-8.101l-9.738-9.824a25.071 25.071 0 0 0-36.918 0l-9.726 9.824c-4.747 5.164-11.442 8.101-18.457 8.101s-13.711-2.937-18.458-8.101l-9.73-9.824c-4.746-5.168-11.441-8.106-18.457-8.106s-13.71 2.938-18.457 8.106l-9.723 9.824c-4.746 5.164-11.441 8.101-18.457 8.101s-13.71-2.937-18.457-8.101l-9.738-9.824a25.056 25.056 0 0 0-18.457-8.106 25.056 25.056 0 0 0-18.457 8.106l-9.727 9.824a25.067 25.067 0 0 1-36.91 0l-9.699-9.824a25.071 25.071 0 0 0-36.918 0V512h503.32zm0 0" fill="#cb8252"/><path d="M251.66 34.71v130.173l-91.984 91.984c-37.262-37.199-48.426-93.187-28.285-141.832 20.144-48.644 67.62-80.351 120.27-80.324zm0 0" fill="#802d40"/><path d="M381.832 164.883c.027 52.648-31.68 100.125-80.324 120.27-48.645 20.14-104.637 8.976-141.832-28.286l91.984-91.984zm0 0" fill="#cc66a1"/><path d="M416.543 130.168H286.371V0c65.152 14.133 116.04 65.02 130.172 130.168zm0 0" fill="#d75e72"/></svg>