<svg xmlns="http://www.w3.org/2000/svg" viewBox="0 0 55.981 55.981"><path d="M49.446 8c-.731-4.462-11.175-8-23.955-8S2.267 3.538 1.535 8h-.044v37h.045c.731 4.461 11.175 8 23.955 8s23.224-3.539 23.955-8h.045V8h-.045z" fill="#545e73"/><g fill="#38454f"><path d="M25.491 41c-13.255 0-24-3.806-24-8.5V45h.045c.731 4.461 11.175 8 23.955 8s23.224-3.539 23.955-8h.045V32.5c0 4.694-10.745 8.5-24 8.5zM1.491 32v.5c0-.168.018-.334.045-.5h-.045zM49.446 32c.027.166.045.332.045.5V32h-.045z"/></g><g fill="#556080"><path d="M25.491 29c-13.255 0-24-3.806-24-8.5V33h.045c.731 4.461 11.175 8 23.955 8s23.224-3.539 23.955-8h.045V20.5c0 4.694-10.745 8.5-24 8.5zM1.491 20v.5c0-.168.018-.334.045-.5h-.045zM49.446 20c.027.166.045.332.045.5V20h-.045z"/></g><ellipse cx="25.491" cy="8.5" rx="24" ry="8.5" fill="#91bae1"/><g fill="#8697cb"><path d="M25.491 17c-13.255 0-24-3.806-24-8.5V21h.045c.731 4.461 11.175 8 23.955 8s23.224-3.539 23.955-8h.045V8.5c0 4.694-10.745 8.5-24 8.5zM1.491 8v.5c0-.168.018-.334.045-.5h-.045zM49.446 8c.027.166.045.332.045.5V8h-.045z"/></g><circle cx="40.268" cy="40.796" r="9.796" fill="#d0e8f9"/><path d="M43.821 31.674L31.147 44.348a9.823 9.823 0 0 0 3.495 4.459L48.28 35.17a9.818 9.818 0 0 0-4.459-3.496z" fill="#eaf6fd"/><path d="M54.213 54.291l-5.97-6.244a10.74 10.74 0 0 0 2.82-7.251C51.064 34.843 46.221 30 40.268 30s-10.796 4.843-10.796 10.796 4.843 10.796 10.796 10.796c2.442 0 4.689-.824 6.499-2.196l6.001 6.276a.997.997 0 0 0 1.414.032.999.999 0 0 0 .031-1.413zM31.472 40.796c0-4.85 3.946-8.796 8.796-8.796s8.796 3.946 8.796 8.796-3.946 8.796-8.796 8.796-8.796-3.946-8.796-8.796z" fill="#b1d3ef"/></svg>