      <svg xmlns="http://www.w3.org/2000/svg" style="isolation:isolate" viewBox="0 0 557.562 493.75" >
        <defs>
            <radialGradient id="RadialGradient2">
              <stop offset="0%" stop-color="rgba(82, 196, 216, 1)"/>
              <stop offset="100%" stop-color="rgba(43,119,132, 1)"/>
            </radialGradient>
            <clipPath id="portfolio-arm2-clip">
                <circle r="30" cx="455" cy="36" />
            </clipPath>
            <clipPath id="contact-arm2-clip">
                <circle r="10" cx="490" cy="295" />
            </clipPath>
            <clipPath id="contact-arm3-clip">
                <circle r="10" cx="385" cy="395" />
            </clipPath>
            <clipPath id="about-arm2-clip">
                <circle r="15" cx="4" cy="240" />
            </clipPath>
        </defs>
        <g fill="none" stroke-width="1.4" stroke="rgb(255,253,253)" stroke-linejoin="bevel" stroke-linecap="round" stroke-miterlimit="3" >
          <g id="portfolio-arm1">
            <path d=" M 366.187 58.5 L 412.187 13.5 L 478.134 13.5 L 494 13.5 L 489.187 13.5" vector-effect="non-scaling-stroke" />
            <line x1="362.187" y1="53.5" x2="408" y2="8" vector-effect="non-scaling-stroke" />
            <path d=" M 371 63 L 415.187 19.681 L 423.006 19.681 L 466.116 19.681 L 483 19.681 L 476.187 19.681" vector-effect="non-scaling-stroke" />
            <path d=" M 375 68 L 400 43 L 447 43"  vector-effect="non-scaling-stroke"/>
            <path class="node" d=" M 447 43.25 C 447 45.596 448.876 47.5 451.187 47.5 C 453.499 47.5 455.375 45.596 455.375 43.25 C 455.375 40.904 453.499 39 451.187 39 C 448.876 39 447 40.904 447 43.25 Z " vector-effect="non-scaling-stroke" />
            <path class="node" d=" M 494.187 13.5 C 494.187 15.846 496.064 17.75 498.375 17.75 C 500.686 17.75 502.562 15.846 502.562 13.5 C 502.562 11.154 500.686 9.25 498.375 9.25 C 496.064 9.25 494.187 11.154 494.187 13.5 Z " vector-effect="non-scaling-stroke"  />
            <path class="node" d=" M 407.187 5.25 C 407.187 7.596 409.064 9.5 411.375 9.5 C 413.686 9.5 415.562 7.596 415.562 5.25 C 415.562 2.904 413.686 1 411.375 1 C 409.064 1 407.187 2.904 407.187 5.25 Z " vector-effect="non-scaling-stroke"  />
            <path class="node" d=" M 483.187 20.5 C 483.187 22.846 485.064 24.75 487.375 24.75 C 489.686 24.75 491.562 22.846 491.562 20.5 C 491.562 18.154 489.686 16.25 487.375 16.25 C 485.064 16.25 483.187 18.154 483.187 20.5 Z " vector-effect="non-scaling-stroke"  />
          </g>
          <g id="portfolio-arm2" class="arm-h" clip-path="url(#portfolio-arm2-clip)">
              <path d=" M 463.187 40 L 463.187 234 L 463.187 234"  vector-effect="non-scaling-stroke"  />
              <path d=" M 474.187 31.5 L 474.187 63.419 L 568 64 L 474.187 63.419 L 474.187 114.5 L 568 115 L 474.187 114.5 L 474.187 173.466 L 568 173.466 L 474.187 173.466 L 474.187 228.5 L 474.187 228.613 L 568 229.613" vector-effect="non-scaling-stroke"  />
              <path class="node" d=" M 459.187 35.5 C 459.187 37.846 461.064 39.75 463.375 39.75 C 465.686 39.75 467.562 37.846 467.562 35.5 C 467.562 33.154 465.686 31.25 463.375 31.25 C 461.064 31.25 459.187 33.154 459.187 35.5 Z " vector-effect="non-scaling-stroke"  />
              <path class="node" d=" M 459.187 238.5 C 459.187 240.846 461.064 242.75 463.375 242.75 C 465.686 242.75 467.562 240.846 467.562 238.5 C 467.562 236.154 465.686 234.25 463.375 234.25 C 461.064 234.25 459.187 236.154 459.187 238.5 Z " vector-effect="non-scaling-stroke"  />
              <path  d=" M 470 28.25 C 470 30.596 471.876 32.5 474.187 32.5 C 476.499 32.5 478.375 30.596 478.375 28.25 C 478.375 25.904 476.499 24 474.187 24 C 471.876 24 470 25.904 470 28.25 Z " fill="rgb(255,255,255)" vector-effect="non-scaling-stroke"  />
              <path class="node" d=" M 569.187 63.613 C 569.187 65.959 571.064 67.863 573.375 67.863 C 575.686 67.863 577.562 65.959 577.562 63.613 C 577.562 61.268 575.686 59.363 573.375 59.363 C 571.064 59.363 569.187 61.268 569.187 63.613 Z " vector-effect="non-scaling-stroke"  />
              <path class="node" d=" M 569.187 114.5 C 569.187 116.846 571.064 118.75 573.375 118.75 C 575.686 118.75 577.562 116.846 577.562 114.5 C 577.562 112.154 575.686 110.25 573.375 110.25 C 571.064 110.25 569.187 112.154 569.187 114.5 Z " vector-effect="non-scaling-stroke"  />
              <path class="node" d=" M 569.187 173.5 C 569.187 175.846 571.064 177.75 573.375 177.75 C 575.686 177.75 577.562 175.846 577.562 173.5 C 577.562 171.154 575.686 169.25 573.375 169.25 C 571.064 169.25 569.187 171.154 569.187 173.5 Z " vector-effect="non-scaling-stroke"  />
              <path class="node" d=" M 569.187 229.5 C 569.187 231.846 571.064 233.75 573.375 233.75 C 575.686 233.75 577.562 231.846 577.562 229.5 C 577.562 227.154 575.686 225.25 573.375 225.25 C 571.064 225.25 569.187 227.154 569.187 229.5 Z " vector-effect="non-scaling-stroke"  />
                        </g>
          <g id="contact-arm1">
              <path d=" M 332.187 231.5 L 389.187 287.5 L 490 287.5 L 472.187 287.5" vector-effect="non-scaling-stroke" />
              <path d=" M 296 243 L 296 288 L 367.187 288 L 367.187 288" vector-effect="non-scaling-stroke" />
              <line x1="338" y1="228" x2="388" y2="277" vector-effect="non-scaling-stroke" />
              <path class="node" d=" M 490.187 287.5 C 490.187 289.846 492.064 291.75 494.375 291.75 C 496.686 291.75 498.562 289.846 498.562 287.5 C 498.562 285.154 496.686 283.25 494.375 283.25 C 492.064 283.25 490.187 285.154 490.187 287.5 Z " vector-effect="non-scaling-stroke"/>
              <path class="node" d=" M 368.187 287.5 C 368.187 289.846 370.064 291.75 372.375 291.75 C 374.686 291.75 376.562 289.846 376.562 287.5 C 376.562 285.154 374.686 283.25 372.375 283.25 C 370.064 283.25 368.187 285.154 368.187 287.5 Z " vector-effect="non-scaling-stroke"/>
              <path class="node" d=" M 387.187 279.5 C 387.187 281.846 389.064 283.75 391.375 283.75 C 393.686 283.75 395.562 281.846 395.562 279.5 C 395.562 277.154 393.686 275.25 391.375 275.25 C 389.064 275.25 387.187 277.154 387.187 279.5 Z " vector-effect="non-scaling-stroke"/>
            </g>
          <g id="contact-arm2" class="arm-h" clip-path="url(#contact-arm2-clip)">
            <path d=" M 484.187 301.5 L 484.187 334.5 L 399 334.5 L 484.187 334.5 L 484.187 383.613 L 399 383.613 L 484.187 383.613"  vector-effect="non-scaling-stroke" />
            <line x1="470.116" y1="342.5" x2="408" y2="342.5" vector-effect="non-scaling-stroke"  />
            <path  d=" M 480 297.25 C 480 299.596 481.876 301.5 484.187 301.5 C 486.499 301.5 488.375 299.596 488.375 297.25 C 488.375 294.904 486.499 293 484.187 293 C 481.876 293 480 294.904 480 297.25 Z " fill="rgb(255,255,255)" vector-effect="non-scaling-stroke"  />
            <path class="node" d=" M 398.562 334.5 C 398.562 336.846 396.686 338.75 394.375 338.75 C 392.064 338.75 390.187 336.846 390.187 334.5 C 390.187 332.154 392.064 330.25 394.375 330.25 C 396.686 330.25 398.562 332.154 398.562 334.5 Z "  vector-effect="non-scaling-stroke"  />
            <path class="node" d=" M 407.562 342.5 C 407.562 344.846 405.686 346.75 403.375 346.75 C 401.064 346.75 399.187 344.846 399.187 342.5 C 399.187 340.154 401.064 338.25 403.375 338.25 C 405.686 338.25 407.562 340.154 407.562 342.5 Z "  vector-effect="non-scaling-stroke"  />
            <path class="node" d=" M 398.562 383.5 C 398.562 385.846 396.686 387.75 394.375 387.75 C 392.064 387.75 390.187 385.846 390.187 383.5 C 390.187 381.154 392.064 379.25 394.375 379.25 C 396.686 379.25 398.562 381.154 398.562 383.5 Z "  vector-effect="non-scaling-stroke"  />
            <path class="node" d=" M 470 342.25 C 470 344.596 471.876 346.5 474.187 346.5 C 476.499 346.5 478.375 344.596 478.375 342.25 C 478.375 339.904 476.499 338 474.187 338 C 471.876 338 470 339.904 470 342.25 Z "  vector-effect="non-scaling-stroke"  />
              
          </g>
          <g id="contact-arm3" class="arm-h" clip-path="url(#contact-arm3-clip)">
              <path d=" M 380.625 392.363 L 365.625 392.363 L 365.625 392.363 L 365.625 421.189 C 365.625 421.223 365.598 421.25 365.564 421.25 L 291.658 421.25 L 365.625 421.25 L 365.625 474.25 L 291.658 474.25 L 365.625 474.25 L 365.625 366.25 L 291.658 366.25"  vector-effect="non-scaling-stroke" stroke-linejoin="round" stroke-linecap="round" stroke-miterlimit="3"/>
              <path d=" M 372.625 410.75 L 372.625 481.25 L 300.625 481.25"  vector-effect="non-scaling-stroke" />
              <path class="node" d=" M 300 481.25 C 300 483.596 298.124 485.5 295.813 485.5 C 293.501 485.5 291.625 483.596 291.625 481.25 C 291.625 478.904 293.501 477 295.813 477 C 298.124 477 300 478.904 300 481.25 Z "  vector-effect="non-scaling-stroke"  />
              <path class="node" d=" M 368.438 406 C 368.438 408.346 370.314 410.25 372.625 410.25 C 374.936 410.25 376.813 408.346 376.813 406 C 376.813 403.654 374.936 401.75 372.625 401.75 C 370.314 401.75 368.438 403.654 368.438 406 Z "  vector-effect="non-scaling-stroke"  />
              <path  d=" M 389 392.25 C 389 394.596 387.124 396.5 384.813 396.5 C 382.501 396.5 380.625 394.596 380.625 392.25 C 380.625 389.904 382.501 388 384.813 388 C 387.124 388 389 389.904 389 392.25 Z " fill="rgb(255,255,255)" vector-effect="non-scaling-stroke"  />
              <path class="node" d=" M 291 366.25 C 291 368.596 289.124 370.5 286.813 370.5 C 284.501 370.5 282.625 368.596 282.625 366.25 C 282.625 363.904 284.501 362 286.813 362 C 289.124 362 291 363.904 291 366.25 Z "  vector-effect="non-scaling-stroke"  />
              <path class="node" d=" M 291 421.25 C 291 423.596 289.124 425.5 286.813 425.5 C 284.501 425.5 282.625 423.596 282.625 421.25 C 282.625 418.904 284.501 417 286.813 417 C 289.124 417 291 418.904 291 421.25 Z "  vector-effect="non-scaling-stroke"  />
              <path class="node" d=" M 291 474.25 C 291 476.596 289.124 478.5 286.813 478.5 C 284.501 478.5 282.625 476.596 282.625 474.25 C 282.625 471.904 284.501 470 286.813 470 C 289.124 470 291 471.904 291 474.25 Z "  vector-effect="non-scaling-stroke"  />
          </g>
          <g id="about-arm1">
              <path d=" M 163.375 141 L 95.822 141 L 23 216" vector-effect="non-scaling-stroke"/>
              <path d=" M 163.375 146.487 L 99.375 146.302 L 36 212" vector-effect="non-scaling-stroke"/>
              <path class="node" d=" M 29 215.363 C 29 217.709 30.876 219.613 33.187 219.613 C 35.499 219.613 37.375 217.709 37.375 215.363 C 37.375 213.018 35.499 211.113 33.187 211.113 C 30.876 211.113 29 213.018 29 215.363 Z " vector-effect="non-scaling-stroke"/>
              <path class="node" d=" M 16 219.363 C 16 221.709 17.876 223.613 20.187 223.613 C 22.499 223.613 24.375 221.709 24.375 219.363 C 24.375 217.018 22.499 215.113 20.187 215.113 C 17.876 215.113 16 217.018 16 219.363 Z " vector-effect="non-scaling-stroke"/>
              <path class="node" d=" M 18 206.363 C 18 208.709 19.876 210.613 22.187 210.613 C 24.499 210.613 26.375 208.709 26.375 206.363 C 26.375 204.018 24.499 202.113 22.187 202.113 C 19.876 202.113 18 204.018 18 206.363 Z " vector-effect="non-scaling-stroke"/>
          </g>
          <g id="about-arm2" class="arm-h" clip-path="url(#about-arm2-clip)"> 
            <path d=" M 5.187 246.5 L 5.187 270.5 L 60.187 270.5 L 60.187 309.5 L 60.187 270.5 L 132.187 270.5 L 132.187 309.5 L 132.187 270.5 L 235.187 270.5 L 201.187 270.5 L 201.187 309.5"  vector-effect="non-scaling-stroke"   />
            <path  d=" M 1 242 C 1 244.346 2.876 246.25 5.187 246.25 C 7.499 246.25 9.375 244.346 9.375 242 C 9.375 239.654 7.499 237.75 5.187 237.75 C 2.876 237.75 1 239.654 1 242 Z " fill="rgb(255,255,255)" vector-effect="non-scaling-stroke"   />
            <path class="node" d=" M 55.813 313.75 C 55.813 316.096 57.689 318 60 318 C 62.311 318 64.187 316.096 64.187 313.75 C 64.187 311.404 62.311 309.5 60 309.5 C 57.689 309.5 55.813 311.404 55.813 313.75 Z "  vector-effect="non-scaling-stroke"   />
            <path class="node" d=" M 127.813 313.75 C 127.813 316.096 129.689 318 132 318 C 134.311 318 136.187 316.096 136.187 313.75 C 136.187 311.404 134.311 309.5 132 309.5 C 129.689 309.5 127.813 311.404 127.813 313.75 Z "  vector-effect="non-scaling-stroke"   />
            <path class="node" d=" M 196.813 313.75 C 196.813 316.096 198.689 318 201 318 C 203.311 318 205.187 316.096 205.187 313.75 C 205.187 311.404 203.311 309.5 201 309.5 C 198.689 309.5 196.813 311.404 196.813 313.75 Z "  vector-effect="non-scaling-stroke"   />
            <path class="node" d=" M 234.813 270.75 C 234.813 273.096 236.689 275 239 275 C 241.311 275 243.187 273.096 243.187 270.75 C 243.187 268.404 241.311 266.5 239 266.5 C 236.689 266.5 234.813 268.404 234.813 270.75 Z "  vector-effect="non-scaling-stroke"   />
          </g>
              
        </g>
      </svg>
