<?xml version="1.0" encoding="iso-8859-1"?>
<!-- Generator: Adobe Illustrator 19.0.0, SVG Export Plug-In . SVG Version: 6.00 Build 0)  -->
<svg version="1.1" id="Capa_1" xmlns="http://www.w3.org/2000/svg" xmlns:xlink="http://www.w3.org/1999/xlink" x="0px" y="0px"
	 viewBox="0 0 512 512" style="enable-background:new 0 0 512 512;" xml:space="preserve">
<path style="fill:#4BB4F5;" d="M256.041,0l-59.99,255.959l59.99,255.959C397.403,511.918,512,397.321,512,255.959
	S397.403,0,256.041,0z"/>
<path style="fill:#7ACBFC;" d="M256.041,0C114.679,0,0.082,114.597,0.082,255.959c0,44.311,11.263,85.991,31.078,122.336L0,512
	l133.704-31.16c36.347,19.814,78.025,31.078,122.337,31.078V0z"/>
<path style="fill:#367A9F;" d="M256.041,74.988l-59.99,180.971l59.99,180.971c99.788,0,180.971-81.184,180.971-180.971
	S355.829,74.988,256.041,74.988z"/>
<path style="fill:#4BB4F5;" d="M75.07,255.959c0,99.787,81.183,180.971,180.971,180.971V74.988
	C156.253,74.988,75.07,156.172,75.07,255.959z"/>
<path style="fill:#FFFFFF;" d="M215.501,377.158c-14.325-28.65-22.913-65.918-24.626-106.201h75.165v-29.995h-75.165
	c1.712-40.283,10.3-77.551,24.626-106.201c14.229-28.455,32.648-44.775,50.539-44.775l-14.998-29.426
	c-101.078,7.686-180.971,92.386-180.971,195.4s79.893,187.714,180.971,195.4l14.998-29.426
	C248.148,421.932,229.729,405.613,215.501,377.158z M198.27,104.462c-3.366,5.204-6.573,10.833-9.597,16.883
	c-16.326,32.653-26.044,74.67-27.817,119.616h-60.104C106.235,180.029,144.779,128.485,198.27,104.462z M100.751,270.957h60.104
	c1.773,44.946,11.49,86.963,27.817,119.616c3.025,6.05,6.231,11.679,9.597,16.883C144.779,383.433,106.235,331.889,100.751,270.957z
	"/>
<path style="fill:#A7DCFC;" d="M259.79,60.038c-6.327,0.119-12.579,0.543-18.747,1.251v389.34c6.168,0.708,12.42,1.132,18.747,1.251
	c106.333-2.007,192.219-89.117,192.219-195.921S366.123,62.045,259.79,60.038z M271.039,93.71
	c12.846,6.332,25.283,20.536,35.541,41.051c14.325,28.65,22.913,65.918,24.626,106.201h-60.167V93.71z M271.039,418.208V270.957
	h60.167c-1.712,40.283-10.3,77.551-24.626,106.201C296.322,397.672,283.885,411.876,271.039,418.208z M323.81,407.456
	c3.366-5.204,6.573-10.833,9.597-16.883c16.326-32.653,26.044-74.67,27.817-119.616h60.104
	C415.845,331.889,377.302,383.433,323.81,407.456z M361.225,240.961c-1.773-44.946-11.49-86.963-27.817-119.616
	c-3.025-6.05-6.231-11.679-9.597-16.883c53.49,24.022,92.035,75.566,97.519,136.499H361.225z"/>
<g>
</g>
<g>
</g>
<g>
</g>
<g>
</g>
<g>
</g>
<g>
</g>
<g>
</g>
<g>
</g>
<g>
</g>
<g>
</g>
<g>
</g>
<g>
</g>
<g>
</g>
<g>
</g>
<g>
</g>
</svg>
