<svg height="511pt" viewBox="0 -7 512 511" width="511pt" xmlns="http://www.w3.org/2000/svg"><path d="M387.215 268.188a7.725 7.725 0 0 1-7.652-6.735l-16.11-124.508a7.727 7.727 0 0 1 6.672-8.652c4.234-.55 8.105 2.441 8.652 6.672l16.11 124.504a7.727 7.727 0 0 1-7.672 8.718zm0 0M366.191 105.672c-3.828 0-7.152-2.84-7.656-6.734l-2.41-18.653a7.724 7.724 0 0 1 6.668-8.652 7.718 7.718 0 0 1 8.656 6.668l2.414 18.652a7.729 7.729 0 0 1-7.672 8.719zm0 0" fill="#d0f4ef"/><path d="M133.633 238.902l103.832-9.14c11.898-1.047 21.25 9.984 18.273 21.55l-28.027 111.825a16.912 16.912 0 0 1-16.375 12.691c-11.438 0-19.578-11.113-16.125-22.015l22.148-81.739-95.902 10.395zm0 0" fill="#336686"/><path d="M103.016 257.434c-41.856-8.516-68.883-49.348-60.371-91.204l16.921-83.207c5.84-28.714 33.852-47.253 62.567-41.414l18.945 3.852c8.832 1.797 14.54 10.414 12.742 19.25l-37.394 183.844c-1.254 6.156-7.258 10.129-13.41 8.879zm0 0" fill="#f55"/><path d="M153.824 64.707L116.43 248.559c-1.25 6.152-7.254 10.129-13.41 8.875a77.867 77.867 0 0 1-15.383-4.825c3.59-1.324 6.437-4.41 7.258-8.433l37.394-183.848c1.73-8.508-3.504-16.82-11.781-19.02.535.09 1.082.192 1.625.301l18.941 3.852c8.84 1.8 14.547 10.418 12.75 19.246zm0 0" fill="#f72b2b"/><path d="M134.418 56.621l-46.129-9.383c-11.371-2.312-18.715-13.41-16.402-24.781C74.199 11.082 85.293 3.738 96.668 6.055l46.129 9.383c11.371 2.312 18.719 13.406 16.402 24.78-2.312 11.372-13.406 18.716-24.781 16.403zm0 0" fill="#2081f6"/><path d="M98.984 236.04a7.676 7.676 0 0 1-4.593-1.52C74.406 219.707 64.695 194.383 69.656 170l.63-3.094a7.725 7.725 0 0 1 9.112-6.031 7.731 7.731 0 0 1 6.032 9.113l-.63 3.09c-3.769 18.531 3.606 37.774 18.79 49.027a7.727 7.727 0 0 1 1.61 10.81 7.723 7.723 0 0 1-6.216 3.124zm0 0M92.996 125.184c-.512 0-1.027-.051-1.55-.157l-2.637-.535a7.728 7.728 0 0 1 3.082-15.145l2.636.54c4.18.847 6.88 4.93 6.032 9.11a7.73 7.73 0 0 1-7.563 6.187zm0 0M105.617 106.52c-.512 0-1.027-.051-1.547-.157l-11.113-2.261c-4.18-.852-6.883-4.93-6.031-9.11a7.729 7.729 0 0 1 9.11-6.035l11.112 2.262a7.723 7.723 0 0 1 6.032 9.11 7.727 7.727 0 0 1-7.563 6.19zm0 0" fill="#f72b2b"/><path d="M512 180.941v306.817c0 5.523-4.477 10-10 10H58.05c-5.523 0-10-4.477-10-10v-16.29c0-2.652 1.055-5.198 2.93-7.073l99.989-99.989a9.996 9.996 0 0 1 7.07-2.926h64.723l53.687-53.69a10 10 0 0 1 7.07-2.93h59.97L474.48 173.87a10 10 0 0 1 7.07-2.93H502c5.523 0 10 4.477 10 10zm0 0" fill="#9ac6c3"/><g fill="#8cb4b1"><path d="M512 180.941v306.817c0 5.523-4.477 10-10 10h-38.242V184.594l10.722-10.723a10 10 0 0 1 7.07-2.93H502c5.523 0 10 4.477 10 10zm0 0M342.977 304.863v78.086a7.729 7.729 0 0 1-7.727 7.727c-4.262 0-7.723-3.461-7.723-7.727v-78.086zm0 0M406.277 442.785a7.729 7.729 0 0 1-7.726-7.726V377.87c0-4.266 3.46-7.723 7.726-7.723s7.727 3.457 7.727 7.723v57.188a7.729 7.729 0 0 1-7.727 7.726zm0 0"/><path d="M471.484 377.871v119.89h-15.453v-119.89a7.729 7.729 0 0 1 7.727-7.726 7.729 7.729 0 0 1 7.726 7.726zm0 0M210.324 475.926a7.723 7.723 0 0 1-7.722-7.727V412.57a7.725 7.725 0 0 1 7.722-7.726h36.184c4.27 0 7.726 3.46 7.726 7.726a7.726 7.726 0 0 1-7.726 7.727H218.05v47.902c.004 4.27-3.457 7.727-7.727 7.727zm0 0M320.332 446.238h-.184a7.726 7.726 0 0 1-7.656-7.793 7.724 7.724 0 0 1 7.723-7.66h.07l.113.004a7.723 7.723 0 0 1 7.657 7.793 7.723 7.723 0 0 1-7.723 7.656zm0 0"/></g><path d="M472.082 323.25h-.184a7.726 7.726 0 0 1-7.656-7.797c.04-4.265 3.492-7.723 7.797-7.656l.113.004a7.723 7.723 0 0 1 7.657 7.793 7.729 7.729 0 0 1-7.727 7.656zm0 0" fill="#9ac6c3"/><path d="M183.27 421.602h-.185a7.724 7.724 0 0 1-7.655-7.797 7.726 7.726 0 0 1 7.722-7.657h.07l.114.004a7.726 7.726 0 0 1-.066 15.45zm0 0M149.098 446.242c-.024 0-.047 0-.07-.004h-.114a7.728 7.728 0 0 1-7.656-7.793 7.73 7.73 0 0 1 7.726-7.66h.07l.11.004c4.27.035 7.695 3.527 7.66 7.793a7.73 7.73 0 0 1-7.726 7.66zm0 0" fill="#8cb4b1"/><path d="M467.523 375.813H403.54c-9.258 0-16.766-7.508-16.766-16.766s7.508-16.762 16.766-16.762h63.984c9.258 0 16.762 7.504 16.762 16.762 0 9.262-7.504 16.765-16.762 16.765zm0 0" fill="#a2d961"/><path d="M336.277 140.89c7.512-1.527 12.832-8.492 12.133-16.304-.754-8.387-8.164-14.578-16.55-13.824l-129.036 11.59c-8.379.75-14.574 8.164-13.824 16.55.754 8.387 8.164 14.575 16.55 13.82l129.036-11.585c.574-.051 1.14-.137 1.691-.246zm0 0" fill="#ff9921"/><path d="M101.457 230.043l-48.86 190.719c-2.456 9.597 3.731 19.273 13.477 21.066 8.739 1.61 17.254-3.742 19.594-12.316l52.07-190.61zm0 0" fill="#628fb1"/><path d="M209.59 138.703l-23.39 92.149c-2.11 8.332-10.04 13.832-18.579 12.878l-58.281-6.457c-6.102-.671-10.16-6.652-8.54-12.57l17.528-64.121 4.461-16.34L130.24 117c5-18.277 21.57-30.297 39.652-30.297 3.59 0 7.238.48 10.87 1.469 21.919 5.988 34.829 28.61 28.829 50.531zm0 0" fill="#ffbd47"/><path d="M188.512 91.152h-.02c-8.191-.539-16.176 1.422-23.023 5.336-9.14 5.211-16.301 13.918-19.297 24.867L114.34 237.828l-4.996-.555c-6.11-.675-10.164-6.648-8.543-12.578l29.445-107.687c.063-.246.133-.485.207-.73.05-.176.102-.34.152-.505.083-.27.168-.527.25-.793l.34-.992.34-.937c.02-.04.031-.07.04-.102.214-.547.445-1.094.679-1.629a38.78 38.78 0 0 1 1.59-3.234c.277-.504.566-1.012.863-1.504 0-.02.012-.031.02-.043.168-.266.32-.523.496-.793.265-.43.554-.851.855-1.273a16.5 16.5 0 0 1 .73-1.032 19.3 19.3 0 0 1 .887-1.156c.278-.355.575-.715.875-1.062a42.178 42.178 0 0 1 2.48-2.672c.423-.418.872-.848 1.321-1.239.113-.113.227-.218.34-.312.285-.258.586-.512.894-.762.176-.152.352-.297.536-.43.27-.23.539-.433.804-.628a9.35 9.35 0 0 1 .73-.547l.016-.012c.957-.734 1.98-1.375 3.012-1.996l.824-.496c.328-.184.657-.36.989-.535.093-.055.187-.106.28-.156.45-.239.907-.465 1.368-.688.043-.023.094-.043.137-.063.36-.175.73-.34 1.101-.496a39.471 39.471 0 0 1 3.676-1.421c.422-.133.848-.27 1.27-.391.433-.133.855-.246 1.289-.352a9.61 9.61 0 0 1 .554-.14c.348-.094.711-.176 1.082-.25a39.13 39.13 0 0 1 3.247-.567c.246-.039.492-.07.742-.093.422-.051.843-.09 1.265-.122.371-.03.743-.062 1.121-.074.27-.02.528-.039.786-.039a40.95 40.95 0 0 1 12.332 1.43c.554.156 1.109.32 1.656.496.598.184 1.195.39 1.773.605.38.137.743.282 1.114.434.308.125.617.246.918.383.37.152.73.316 1.09.484.402.184.804.38 1.195.578zm0 0" fill="#ff9921"/><path d="M150.14 155.563l-31.812 5.019 4.461-16.34 24.941-3.941a7.725 7.725 0 0 1 8.84 6.43c.66 4.21-2.21 8.171-6.43 8.832zm0 0" fill="#ff9921"/><path d="M238.68 44.227c.433 3.117.578 6.218.445 9.257a57.183 57.183 0 0 1-.227 3.075c-2.394 22.632-19.902 41.601-43.453 44.879-27.738 3.863-53.351-15.5-57.21-43.223a49.972 49.972 0 0 1-.493-6.875 50.026 50.026 0 0 1 2.09-14.578c5.496-18.45 21.32-32.942 41.621-35.77 27.192-3.789 52.348 14.738 56.965 41.602.098.531.184 1.074.262 1.633zm0 0" fill="#fecaa8"/><path d="M238.68 44.227c.433 3.117.578 6.218.445 9.257a57.183 57.183 0 0 1-.227 3.075c-10.293 3.789-20.527 6.414-30.52 7.804-35.21 4.907-59.687-6.34-70.636-13.023-.008-1.09.031-2.172.09-3.246a49.987 49.987 0 0 1 2-11.332c5.496-18.453 21.32-32.942 41.621-35.77 27.192-3.789 52.348 14.738 56.965 41.602.098.531.184 1.074.262 1.633zm0 0" fill="#ffb38c"/><path d="M238.418 42.59c-62.215 24.996-98.582-5.824-98.582-5.824C145.328 18.313 161.152 3.82 181.457.992c27.191-3.785 52.348 14.738 56.961 41.598zm0 0" fill="#336686"/><path d="M249.746 46.102a180.244 180.244 0 0 1-10.578 4.5c-18.164 7.027-34.242 9.57-48.02 9.57-27.515 0-45.8-10.168-53.043-15.09a49.82 49.82 0 0 1 1.73-8.324c.712-2.383 1.59-4.7 2.63-6.926.969.25 1.906.691 2.762 1.34 3.718 2.836 36.847 26.105 91.28 3.855 2.208-.91 4.45-1.875 6.727-2.937 3.875-1.805 8.47-.113 10.262 3.75 1.805 3.875.113 8.469-3.75 10.262zm0 0" fill="#336686"/><path d="M164.785 121.969c1.317 8.32-4.363 16.129-12.68 17.441l-58.402 9.227-34.719 41.175c-5.32 6.313-14.726 7.176-21.109 1.938l-.234-.195c-6.508-5.336-7.399-14.961-1.973-21.399l38.383-45.523a15.264 15.264 0 0 1 9.277-5.23l64.02-10.114c8.316-1.316 16.125 4.363 17.437 12.68zm0 0" fill="#ffbd47"/><path d="M48.484 447.785l50.743 16.832c9.574 3.18 17.945-7.262 12.761-15.918a76.26 76.26 0 0 0-41.406-33.195l-10.262-3.402a9.92 9.92 0 0 0-12.543 6.293l-5.59 16.843c-1.726 5.203 1.094 10.82 6.297 12.547zm0 0" fill="#2081f6"/><path d="M154.156 478.93H77.801c-4.266 0-7.727-3.461-7.727-7.727s3.461-7.726 7.727-7.726h76.355c4.266 0 7.727 3.46 7.727 7.726s-3.461 7.727-7.727 7.727zm0 0M294.121 405.11a7.729 7.729 0 0 1-7.726-7.727v-15.25H255.43c-4.266 0-7.727-3.461-7.727-7.727s3.461-7.726 7.727-7.726h38.691a7.729 7.729 0 0 1 7.727 7.726v22.977a7.729 7.729 0 0 1-7.727 7.726zm0 0" fill="#8cb4b1"/><path d="M360.992 137.07l18.418-3.097a11.814 11.814 0 0 0 9.469-8.653l3.754-14.27c2.18-8.3-4.934-16.085-13.395-14.66l-24.398 4.102c-10.102 1.7-16.91 11.266-15.215 21.367 1.703 10.102 11.27 16.91 21.367 15.211zm0 0M46.465 207.156l-10.086 15.715a11.824 11.824 0 0 1-11.68 5.313l-14.597-2.16c-8.489-1.258-12.852-10.856-8.22-18.079l13.364-20.82c5.531-8.621 17.004-11.125 25.625-5.594s11.125 17.004 5.594 25.625zm0 0" fill="#fecaa8"/><path d="M387.813 65.484c0-7.242-10.844-13.117-24.223-13.117s-24.223 5.875-24.223 13.117c0 7.246 10.844 13.118 24.223 13.118s24.222-5.872 24.222-13.118zm0 0" fill="#2081f6"/></svg>