<svg xmlns="http://www.w3.org/2000/svg" viewBox="0 0 58 58"><path fill="#efebde" d="M46.5 14l-14-14h-31v58h45z"/><g fill="#d5d0bb"><path d="M11.5 23h25a1 1 0 1 0 0-2h-25a1 1 0 1 0 0 2zM11.5 15h10a1 1 0 1 0 0-2h-10a1 1 0 1 0 0 2zM36.5 29h-25a1 1 0 1 0 0 2h25a1 1 0 1 0 0-2zM36.5 37h-25a1 1 0 1 0 0 2h25a1 1 0 1 0 0-2zM36.5 45h-25a1 1 0 1 0 0 2h25a1 1 0 1 0 0-2z"/></g><path fill="#d5d0bb" d="M32.5 0v14h14z"/><path fill="#21ae5e" d="M34.5 36h22v22h-22z"/><path fill="#fff" d="M44.5 37.586h2v16h-2z"/><path fill="#fff" d="M45.5 55l-7-6.707 1.476-1.414 5.524 5.293 5.524-5.293 1.476 1.414z"/></svg>